<svg xmlns="http://www.w3.org/2000/svg" preserveAspectRatio="xMinYMin meet" viewBox="0 0 500 500"> <rect x="0" y="0" width="500" height="500" style="fill:#9de"/> <rect x="190" y="70" width="120" height="100" style="fill:#90f" /> <rect x="180" y="80" width="140" height="80" style="fill:#90f" /> <rect x="200" y="50" width="110" height="10" style="fill:#000" /> <rect x="300" y="50" width="10" height="20" style="fill:#000" /> <rect x="200" y="50" width="10" height="60" style="fill:#000" /> <rect x="190" y="100" width="30" height="40" style="fill:#000" /> <rect x="250" y="100" width="20" height="30" style="fill:#fff" /> <rect x="280" y="100" width="20" height="30" style="fill:#fff" /> <rect x="260" y="110" width="10" height="20" style="fill:#000" /> <rect x="290" y="110" width="10" height="20" style="fill:#000" /> <rect x="270" y="140" width="10" height="10" style="fill:#e74c3c" /> <rect x="210" y="170" width="80" height="20" style="fill:#000" /> <rect x="135" y="185" width="230" height="150" style="fill:#90f;stroke-width:10;stroke:#000" /> <rect x="130" y="330" width="20" height="40" style="fill:#000" /> <rect x="350" y="330" width="20" height="40" style="fill:#000" /> <rect x="130" y="370" width="20" height="20" style="fill:#90f" /> <rect x="350" y="370" width="20" height="20" style="fill:#90f" /> <rect x="180" y="330" width="140" height="40" style="fill:#000" /> <rect x="180" y="370" width="140" height="60" style="fill:#f0f" /> <rect x="210" y="390" width="80" height="40" style="fill:#9de" /> <rect x="180" y="430" width="160" height="10" style="fill:#000" /> <rect x="180" y="440" width="160" height="10" style="fill:#fff" /> <rect x="230" y="420" width="60" height="40" style="fill:#9de" /><rect x="140" y="190" width="10" height="10" style="fill:#3d0066" /><rect x="140" y="200" width="10" height="10" style="fill:#3d0066" /><rect x="250" y="200" width="10" height="10" style="fill:#3d0066" /><rect x="140" y="210" width="10" height="10" style="fill:#3d0066" /><rect x="250" y="210" width="10" height="10" style="fill:#3d0066" /><rect x="140" y="220" width="10" height="10" style="fill:#3d0066" /><rect x="250" y="220" width="10" height="10" style="fill:#3d0066" /><rect x="140" y="230" width="10" height="10" style="fill:#3d0066" /><rect x="250" y="230" width="10" height="10" style="fill:#3d0066" /><rect x="140" y="240" width="10" height="10" style="fill:#3d0066" /><rect x="250" y="240" width="10" height="10" style="fill:#3d0066" /><rect x="140" y="250" width="10" height="10" style="fill:#3d0066" /><rect x="250" y="250" width="10" height="10" style="fill:#3d0066" /><rect x="140" y="260" width="10" height="10" style="fill:#3d0066" /><rect x="250" y="260" width="10" height="10" style="fill:#3d0066" /><rect x="140" y="270" width="10" height="10" style="fill:#3d0066" /><rect x="250" y="270" width="10" height="10" style="fill:#3d0066" /><rect x="140" y="280" width="10" height="10" style="fill:#3d0066" /><rect x="250" y="280" width="10" height="10" style="fill:#3d0066" /><rect x="140" y="290" width="10" height="10" style="fill:#3d0066" /><rect x="250" y="290" width="10" height="10" style="fill:#3d0066" /><rect x="140" y="300" width="10" height="10" style="fill:#3d0066" /><rect x="250" y="300" width="10" height="10" style="fill:#3d0066" /><rect x="140" y="310" width="10" height="10" style="fill:#3d0066" /><rect x="250" y="310" width="10" height="10" style="fill:#3d0066" /><rect x="140" y="320" width="10" height="10" style="fill:#3d0066" /><rect x="250" y="320" width="10" height="10" style="fill:#3d0066" /><rect x="150" y="190" width="10" height="10" style="fill:#3d0066" /><rect x="150" y="200" width="10" height="10" style="fill:#3d0066" /><rect x="260" y="200" width="10" height="10" style="fill:#3d0066" /><rect x="150" y="210" width="10" height="10" style="fill:#3d0066" /><rect x="260" y="210" width="10" height="10" style="fill:#3d0066" /><rect x="150" y="220" width="10" height="10" style="fill:#3d0066" /><rect x="260" y="220" width="10" height="10" style="fill:#3d0066" /><rect x="150" y="230" width="10" height="10" style="fill:#3d0066" /><rect x="150" y="240" width="10" height="10" style="fill:#3d0066" /><rect x="260" y="240" width="10" height="10" style="fill:#3d0066" /><rect x="150" y="250" width="10" height="10" style="fill:#3d0066" /><rect x="260" y="250" width="10" height="10" style="fill:#3d0066" /><rect x="150" y="260" width="10" height="10" style="fill:#3d0066" /><rect x="260" y="260" width="10" height="10" style="fill:#3d0066" /><rect x="150" y="270" width="10" height="10" style="fill:#3d0066" /><rect x="150" y="280" width="10" height="10" style="fill:#3d0066" /><rect x="260" y="280" width="10" height="10" style="fill:#3d0066" /><rect x="150" y="290" width="10" height="10" style="fill:#3d0066" /><rect x="260" y="290" width="10" height="10" style="fill:#3d0066" /><rect x="150" y="300" width="10" height="10" style="fill:#3d0066" /><rect x="260" y="300" width="10" height="10" style="fill:#3d0066" /><rect x="150" y="310" width="10" height="10" style="fill:#3d0066" /><rect x="260" y="310" width="10" height="10" style="fill:#3d0066" /><rect x="150" y="320" width="10" height="10" style="fill:#3d0066" /><rect x="260" y="320" width="10" height="10" style="fill:#3d0066" /><rect x="160" y="190" width="10" height="10" style="fill:#3d0066" /><rect x="160" y="200" width="10" height="10" style="fill:#3d0066" /><rect x="160" y="210" width="10" height="10" style="fill:#3d0066" /><rect x="270" y="210" width="10" height="10" style="fill:#3d0066" /><rect x="160" y="220" width="10" height="10" style="fill:#3d0066" /><rect x="270" y="220" width="10" height="10" style="fill:#3d0066" /><rect x="160" y="230" width="10" height="10" style="fill:#3d0066" /><rect x="270" y="240" width="10" height="10" style="fill:#3d0066" /><rect x="160" y="260" width="10" height="10" style="fill:#3d0066" /><rect x="270" y="260" width="10" height="10" style="fill:#3d0066" /><rect x="160" y="270" width="10" height="10" style="fill:#3d0066" /><rect x="160" y="280" width="10" height="10" style="fill:#3d0066" /><rect x="270" y="280" width="10" height="10" style="fill:#3d0066" /><rect x="160" y="290" width="10" height="10" style="fill:#3d0066" /><rect x="270" y="290" width="10" height="10" style="fill:#3d0066" /><rect x="160" y="300" width="10" height="10" style="fill:#3d0066" /><rect x="160" y="310" width="10" height="10" style="fill:#3d0066" /><rect x="160" y="320" width="10" height="10" style="fill:#3d0066" /><rect x="170" y="190" width="10" height="10" style="fill:#3d0066" /><rect x="170" y="200" width="10" height="10" style="fill:#3d0066" /><rect x="170" y="210" width="10" height="10" style="fill:#3d0066" /><rect x="280" y="210" width="10" height="10" style="fill:#3d0066" /><rect x="280" y="220" width="10" height="10" style="fill:#3d0066" /><rect x="280" y="280" width="10" height="10" style="fill:#3d0066" /><rect x="170" y="290" width="10" height="10" style="fill:#3d0066" /><rect x="170" y="300" width="10" height="10" style="fill:#3d0066" /><rect x="180" y="190" width="10" height="10" style="fill:#3d0066" /><rect x="290" y="190" width="10" height="10" style="fill:#3d0066" /><rect x="180" y="200" width="10" height="10" style="fill:#3d0066" /><rect x="290" y="220" width="10" height="10" style="fill:#3d0066" /><rect x="290" y="230" width="10" height="10" style="fill:#3d0066" /><rect x="180" y="240" width="10" height="10" style="fill:#3d0066" /><rect x="290" y="240" width="10" height="10" style="fill:#3d0066" /><rect x="180" y="250" width="10" height="10" style="fill:#3d0066" /><rect x="290" y="250" width="10" height="10" style="fill:#3d0066" /><rect x="290" y="260" width="10" height="10" style="fill:#3d0066" /><rect x="290" y="270" width="10" height="10" style="fill:#3d0066" /><rect x="180" y="300" width="10" height="10" style="fill:#3d0066" /><rect x="190" y="190" width="10" height="10" style="fill:#3d0066" /><rect x="300" y="190" width="10" height="10" style="fill:#3d0066" /><rect x="300" y="200" width="10" height="10" style="fill:#3d0066" /><rect x="190" y="220" width="10" height="10" style="fill:#3d0066" /><rect x="190" y="230" width="10" height="10" style="fill:#3d0066" /><rect x="190" y="240" width="10" height="10" style="fill:#3d0066" /><rect x="300" y="240" width="10" height="10" style="fill:#3d0066" /><rect x="190" y="250" width="10" height="10" style="fill:#3d0066" /><rect x="300" y="250" width="10" height="10" style="fill:#3d0066" /><rect x="190" y="260" width="10" height="10" style="fill:#3d0066" /><rect x="190" y="270" width="10" height="10" style="fill:#3d0066" /><rect x="300" y="300" width="10" height="10" style="fill:#3d0066" /><rect x="310" y="190" width="10" height="10" style="fill:#3d0066" /><rect x="310" y="200" width="10" height="10" style="fill:#3d0066" /><rect x="200" y="210" width="10" height="10" style="fill:#3d0066" /><rect x="310" y="210" width="10" height="10" style="fill:#3d0066" /><rect x="200" y="220" width="10" height="10" style="fill:#3d0066" /><rect x="200" y="240" width="10" height="10" style="fill:#3d0066" /><rect x="200" y="250" width="10" height="10" style="fill:#3d0066" /><rect x="200" y="260" width="10" height="10" style="fill:#3d0066" /><rect x="200" y="280" width="10" height="10" style="fill:#3d0066" /><rect x="310" y="290" width="10" height="10" style="fill:#3d0066" /><rect x="310" y="300" width="10" height="10" style="fill:#3d0066" /><rect x="320" y="190" width="10" height="10" style="fill:#3d0066" /><rect x="320" y="200" width="10" height="10" style="fill:#3d0066" /><rect x="210" y="210" width="10" height="10" style="fill:#3d0066" /><rect x="320" y="210" width="10" height="10" style="fill:#3d0066" /><rect x="210" y="220" width="10" height="10" style="fill:#3d0066" /><rect x="320" y="220" width="10" height="10" style="fill:#3d0066" /><rect x="320" y="230" width="10" height="10" style="fill:#3d0066" /><rect x="210" y="240" width="10" height="10" style="fill:#3d0066" /><rect x="210" y="260" width="10" height="10" style="fill:#3d0066" /><rect x="320" y="260" width="10" height="10" style="fill:#3d0066" /><rect x="320" y="270" width="10" height="10" style="fill:#3d0066" /><rect x="210" y="280" width="10" height="10" style="fill:#3d0066" /><rect x="320" y="280" width="10" height="10" style="fill:#3d0066" /><rect x="210" y="290" width="10" height="10" style="fill:#3d0066" /><rect x="320" y="290" width="10" height="10" style="fill:#3d0066" /><rect x="320" y="300" width="10" height="10" style="fill:#3d0066" /><rect x="320" y="310" width="10" height="10" style="fill:#3d0066" /><rect x="320" y="320" width="10" height="10" style="fill:#3d0066" /><rect x="330" y="190" width="10" height="10" style="fill:#3d0066" /><rect x="220" y="200" width="10" height="10" style="fill:#3d0066" /><rect x="330" y="200" width="10" height="10" style="fill:#3d0066" /><rect x="220" y="210" width="10" height="10" style="fill:#3d0066" /><rect x="330" y="210" width="10" height="10" style="fill:#3d0066" /><rect x="220" y="220" width="10" height="10" style="fill:#3d0066" /><rect x="330" y="220" width="10" height="10" style="fill:#3d0066" /><rect x="330" y="230" width="10" height="10" style="fill:#3d0066" /><rect x="330" y="240" width="10" height="10" style="fill:#3d0066" /><rect x="330" y="250" width="10" height="10" style="fill:#3d0066" /><rect x="330" y="260" width="10" height="10" style="fill:#3d0066" /><rect x="330" y="270" width="10" height="10" style="fill:#3d0066" /><rect x="220" y="280" width="10" height="10" style="fill:#3d0066" /><rect x="330" y="280" width="10" height="10" style="fill:#3d0066" /><rect x="220" y="290" width="10" height="10" style="fill:#3d0066" /><rect x="330" y="290" width="10" height="10" style="fill:#3d0066" /><rect x="220" y="300" width="10" height="10" style="fill:#3d0066" /><rect x="330" y="300" width="10" height="10" style="fill:#3d0066" /><rect x="220" y="310" width="10" height="10" style="fill:#3d0066" /><rect x="330" y="310" width="10" height="10" style="fill:#3d0066" /><rect x="220" y="320" width="10" height="10" style="fill:#3d0066" /><rect x="330" y="320" width="10" height="10" style="fill:#3d0066" /><rect x="340" y="190" width="10" height="10" style="fill:#3d0066" /><rect x="230" y="200" width="10" height="10" style="fill:#3d0066" /><rect x="340" y="200" width="10" height="10" style="fill:#3d0066" /><rect x="230" y="210" width="10" height="10" style="fill:#3d0066" /><rect x="340" y="210" width="10" height="10" style="fill:#3d0066" /><rect x="230" y="220" width="10" height="10" style="fill:#3d0066" /><rect x="340" y="220" width="10" height="10" style="fill:#3d0066" /><rect x="230" y="230" width="10" height="10" style="fill:#3d0066" /><rect x="340" y="230" width="10" height="10" style="fill:#3d0066" /><rect x="230" y="240" width="10" height="10" style="fill:#3d0066" /><rect x="340" y="240" width="10" height="10" style="fill:#3d0066" /><rect x="230" y="250" width="10" height="10" style="fill:#3d0066" /><rect x="340" y="250" width="10" height="10" style="fill:#3d0066" /><rect x="230" y="260" width="10" height="10" style="fill:#3d0066" /><rect x="340" y="260" width="10" height="10" style="fill:#3d0066" /><rect x="230" y="270" width="10" height="10" style="fill:#3d0066" /><rect x="340" y="270" width="10" height="10" style="fill:#3d0066" /><rect x="230" y="280" width="10" height="10" style="fill:#3d0066" /><rect x="340" y="280" width="10" height="10" style="fill:#3d0066" /><rect x="230" y="290" width="10" height="10" style="fill:#3d0066" /><rect x="340" y="290" width="10" height="10" style="fill:#3d0066" /><rect x="230" y="300" width="10" height="10" style="fill:#3d0066" /><rect x="340" y="300" width="10" height="10" style="fill:#3d0066" /><rect x="230" y="310" width="10" height="10" style="fill:#3d0066" /><rect x="340" y="310" width="10" height="10" style="fill:#3d0066" /><rect x="230" y="320" width="10" height="10" style="fill:#3d0066" /><rect x="340" y="320" width="10" height="10" style="fill:#3d0066" /><rect x="350" y="190" width="10" height="10" style="fill:#3d0066" /><rect x="240" y="200" width="10" height="10" style="fill:#3d0066" /><rect x="350" y="200" width="10" height="10" style="fill:#3d0066" /><rect x="240" y="210" width="10" height="10" style="fill:#3d0066" /><rect x="350" y="210" width="10" height="10" style="fill:#3d0066" /><rect x="240" y="220" width="10" height="10" style="fill:#3d0066" /><rect x="350" y="220" width="10" height="10" style="fill:#3d0066" /><rect x="240" y="230" width="10" height="10" style="fill:#3d0066" /><rect x="350" y="230" width="10" height="10" style="fill:#3d0066" /><rect x="240" y="240" width="10" height="10" style="fill:#3d0066" /><rect x="350" y="240" width="10" height="10" style="fill:#3d0066" /><rect x="240" y="250" width="10" height="10" style="fill:#3d0066" /><rect x="350" y="250" width="10" height="10" style="fill:#3d0066" /><rect x="240" y="260" width="10" height="10" style="fill:#3d0066" /><rect x="350" y="260" width="10" height="10" style="fill:#3d0066" /><rect x="350" y="270" width="10" height="10" style="fill:#3d0066" /><rect x="350" y="280" width="10" height="10" style="fill:#3d0066" /><rect x="240" y="290" width="10" height="10" style="fill:#3d0066" /><rect x="350" y="290" width="10" height="10" style="fill:#3d0066" /><rect x="240" y="300" width="10" height="10" style="fill:#3d0066" /><rect x="350" y="300" width="10" height="10" style="fill:#3d0066" /><rect x="240" y="310" width="10" height="10" style="fill:#3d0066" /><rect x="350" y="310" width="10" height="10" style="fill:#3d0066" /><rect x="240" y="320" width="10" height="10" style="fill:#3d0066" /><rect x="350" y="320" width="10" height="10" style="fill:#3d0066" /></svg>